<svg width="24" height="24" viewBox="0 0 24 24" fill="none" xmlns="http://www.w3.org/2000/svg">
<path d="M16.9998 1.99982C18.3248 2.00378 19.5943 2.53187 20.5312 3.46876C21.4681 4.40566 21.9962 5.67522 22.0002 7.00018V16.9998C21.9962 18.3248 21.4681 19.5943 20.5312 20.5312C19.5943 21.4681 18.3248 21.9962 16.9998 22.0002H7.00018C5.67522 21.9962 4.40566 21.4681 3.46876 20.5312C2.53187 19.5943 2.00378 18.3248 1.99982 16.9998V7.00018C2.00378 5.67522 2.53187 4.40566 3.46876 3.46876C4.40566 2.53187 5.67522 2.00378 7.00018 1.99982H16.9998ZM16.9998 0H7.00018C3.15 0 0 3.15 0 7.00018V16.9998C0 20.85 3.15 24 7.00018 24H16.9998C20.85 24 24 20.85 24 16.9998V7.00018C24 3.15 20.85 0 16.9998 0Z" fill="#767676"/>
<path d="M18.4998 7C18.2032 7 17.9131 6.91203 17.6665 6.74721C17.4198 6.58238 17.2275 6.34811 17.114 6.07403C17.0005 5.79994 16.9708 5.49834 17.0286 5.20737C17.0865 4.91639 17.2294 4.64912 17.4392 4.43934C17.6489 4.22956 17.9162 4.0867 18.2072 4.02882C18.4982 3.97094 18.7998 4.00065 19.0738 4.11418C19.3479 4.22771 19.5822 4.41997 19.747 4.66665C19.9118 4.91332 19.9998 5.20333 19.9998 5.5C20.0002 5.6971 19.9617 5.89235 19.8865 6.07453C19.8113 6.25671 19.7008 6.42223 19.5614 6.56161C19.4221 6.70098 19.2565 6.81145 19.0743 6.88668C18.8922 6.96191 18.6969 7.00042 18.4998 7ZM12 7.99964C12.7912 7.99964 13.5646 8.23425 14.2224 8.6738C14.8802 9.11334 15.3929 9.73808 15.6957 10.469C15.9984 11.2 16.0777 12.0043 15.9233 12.7802C15.769 13.5562 15.388 14.2689 14.8286 14.8284C14.2691 15.3878 13.5564 15.7688 12.7804 15.9231C12.0044 16.0775 11.2001 15.9983 10.4692 15.6955C9.73826 15.3927 9.11352 14.88 8.67398 14.2222C8.23443 13.5644 7.99982 12.791 7.99982 11.9998C8.00096 10.9393 8.42277 9.92245 9.1727 9.17252C9.92264 8.42259 10.9394 8.00078 12 7.99964ZM12 5.99982C10.8133 5.99982 9.65328 6.35172 8.66658 7.011C7.67989 7.67029 6.91085 8.60736 6.45673 9.70372C6.0026 10.8001 5.88378 12.0065 6.11529 13.1704C6.3468 14.3343 6.91825 15.4033 7.75736 16.2425C8.59648 17.0816 9.66557 17.653 10.8295 17.8845C11.9933 18.116 13.1997 17.9972 14.2961 17.5431C15.3925 17.089 16.3295 16.3199 16.9888 15.3332C17.6481 14.3465 18 13.1865 18 11.9998C18 10.4085 17.3679 8.8824 16.2426 7.75718C15.1174 6.63196 13.5913 5.99982 12 5.99982Z" fill="#767676"/>
</svg>
