<svg width="30" height="24" viewBox="0 0 30 24" fill="none" xmlns="http://www.w3.org/2000/svg">
<path d="M29.9999 2.84375C28.8746 3.33272 27.6839 3.65486 26.4655 3.8C27.746 3.05024 28.7089 1.85911 29.1737 0.450009C27.9631 1.15788 26.6409 1.65455 25.2637 1.91875C24.6837 1.31096 23.9863 0.827448 23.2136 0.4976C22.441 0.167751 21.6094 -0.00154208 20.7693 1.0584e-05C17.3681 1.0584e-05 14.6156 2.7125 14.6156 6.05624C14.6132 6.52134 14.6665 6.98506 14.7743 7.43749C12.3354 7.32315 9.94717 6.70098 7.76247 5.61078C5.57776 4.52058 3.64467 2.98635 2.08687 1.10626C1.54035 2.02758 1.25133 3.07878 1.25 4.15C1.25 6.24999 2.34562 8.10624 3.99999 9.19373C3.01982 9.17047 2.05974 8.91105 1.20125 8.43748V8.51248C1.20125 11.45 3.32624 13.8937 6.13873 14.45C5.60985 14.591 5.06484 14.6624 4.51749 14.6625C4.1291 14.6631 3.74159 14.6255 3.36061 14.55C4.14249 16.9562 6.41811 18.7062 9.11372 18.7562C6.92334 20.4443 4.23412 21.3567 1.46875 21.3499C0.977883 21.3492 0.487477 21.32 0 21.2624C2.81323 23.0588 6.08338 24.009 9.42122 23.9999C20.7562 23.9999 26.9487 14.7687 26.9487 6.76249C26.9487 6.49999 26.9418 6.23749 26.9293 5.98124C28.1312 5.12628 29.171 4.06382 29.9999 2.84375Z" fill="#767676"/>
</svg>
